<svg width="35" height="43" viewBox="0 0 35 43" fill="none" xmlns="http://www.w3.org/2000/svg">
<path d="M27.4893 32.3966L17.6502 42.5676L7.43562 32.3966L4.97679 29.7539C3.13328 27.7726 1.74491 25.4124 0.90881 22.8384L0.784841 22.4568C0.264853 20.856 0 19.1834 0 17.5002C0 15.9375 0.228334 14.3831 0.677766 12.8863L0.725053 12.7288C1.48327 10.2037 2.82676 7.87253 4.62491 5.94439C5.68735 4.80515 6.90683 3.80602 8.23443 2.99108L8.39044 2.89531C10.2906 1.72893 12.3932 0.930587 14.5886 0.541956L14.6735 0.526928C16.643 0.178291 18.672 0.176717 20.6428 0.517575C22.9679 0.919697 25.2013 1.80073 27.171 3.09992C28.8228 4.18938 30.2847 5.57217 31.4696 7.15689C32.6551 8.74254 33.572 10.5348 34.158 12.4259L34.3253 12.966C34.7725 14.4094 35 15.912 35 17.4232C35 19.1552 34.7012 20.8742 34.1168 22.5046L33.8762 23.1759C33.0313 25.5331 31.7326 27.7019 30.0535 29.5595L27.4893 32.3966Z" fill="#44CDA8"/>
<circle cx="17.5999" cy="17.4735" r="10.7907" fill="#81D6BF"/>
<circle cx="17.5999" cy="17.4735" r="13.5225" fill="#81D6BF" fill-opacity="0.51"/>
<circle cx="17.5998" cy="17.4735" r="8.05889" fill="#5BD0B1"/>
<circle cx="17.5" cy="17.5" r="4.72973" fill="#F7FAFF"/>
</svg>
