<svg width="512" height="512" viewBox="0 0 512 512" fill="none" xmlns="http://www.w3.org/2000/svg">
<rect width="512" height="512" rx="23" fill="#181D2E"/>
<line y1="-2" x2="63.2008" y2="-2" transform="matrix(0.716917 -0.697159 0.69288 0.721053 68.7472 298.509)" stroke="#44CDA8" stroke-width="4"/>
<ellipse cx="60.4404" cy="303.827" rx="12.9144" ry="12.8378" transform="rotate(-90 60.4404 303.827)" fill="#44CDA8"/>
<line y1="-2" x2="63.2008" y2="-2" transform="matrix(0.716917 0.697159 0.69288 -0.721053 67.2369 210.387)" stroke="#44CDA8" stroke-width="4"/>
<ellipse rx="12.9144" ry="12.8378" transform="matrix(1.18541e-08 1 1 -1.19961e-08 58.9302 205.069)" fill="#44CDA8"/>
<line x1="64.2164" y1="256.999" x2="117.078" y2="256.999" stroke="#44CDA8" stroke-width="4"/>
<circle r="12.8762" transform="matrix(0.997018 0 0 -1.00297 53.6755 256.137)" fill="#44CDA8"/>
<path d="M108.047 306.105L109.558 245.331" stroke="#44CDA8" stroke-width="4"/>
<circle r="12.8762" transform="matrix(-0.704998 -0.709209 0.704998 -0.709209 108.047 313.736)" fill="#44CDA8"/>
<ellipse cx="109.526" cy="255.967" rx="12.0826" ry="12.1548" fill="#44CDA8"/>
<path d="M110.009 206.449L110.009 267.363" stroke="#44CDA8" stroke-width="4"/>
<circle r="12.8762" transform="matrix(0.704998 0.709209 -0.704998 0.709209 109.558 198.264)" fill="#44CDA8"/>
<path d="M147.8 248C147.8 242.507 149.027 237.6 151.48 233.28C153.987 228.907 157.373 225.52 161.64 223.12C165.96 220.667 170.787 219.44 176.12 219.44C182.36 219.44 187.827 221.04 192.52 224.24C197.213 227.44 200.493 231.867 202.36 237.52H189.48C188.2 234.853 186.387 232.853 184.04 231.52C181.747 230.187 179.08 229.52 176.04 229.52C172.787 229.52 169.88 230.293 167.32 231.84C164.813 233.333 162.84 235.467 161.4 238.24C160.013 241.013 159.32 244.267 159.32 248C159.32 251.68 160.013 254.933 161.4 257.76C162.84 260.533 164.813 262.693 167.32 264.24C169.88 265.733 172.787 266.48 176.04 266.48C179.08 266.48 181.747 265.813 184.04 264.48C186.387 263.093 188.2 261.067 189.48 258.4H202.36C200.493 264.107 197.213 268.56 192.52 271.76C187.88 274.907 182.413 276.48 176.12 276.48C170.787 276.48 165.96 275.28 161.64 272.88C157.373 270.427 153.987 267.04 151.48 262.72C149.027 258.4 147.8 253.493 147.8 248ZM237.846 276.56C232.62 276.56 227.82 275.333 223.446 272.88C219.073 270.427 215.606 267.04 213.046 262.72C210.486 258.347 209.206 253.413 209.206 247.92C209.206 242.48 210.486 237.6 213.046 233.28C215.606 228.907 219.073 225.493 223.446 223.04C227.82 220.587 232.62 219.36 237.846 219.36C243.126 219.36 247.926 220.587 252.246 223.04C256.62 225.493 260.06 228.907 262.566 233.28C265.126 237.6 266.406 242.48 266.406 247.92C266.406 253.413 265.126 258.347 262.566 262.72C260.06 267.04 256.62 270.427 252.246 272.88C247.873 275.333 243.073 276.56 237.846 276.56ZM237.846 266.56C241.206 266.56 244.166 265.813 246.726 264.32C249.286 262.773 251.286 260.587 252.726 257.76C254.166 254.933 254.886 251.653 254.886 247.92C254.886 244.187 254.166 240.933 252.726 238.16C251.286 235.333 249.286 233.173 246.726 231.68C244.166 230.187 241.206 229.44 237.846 229.44C234.486 229.44 231.5 230.187 228.886 231.68C226.326 233.173 224.326 235.333 222.886 238.16C221.446 240.933 220.726 244.187 220.726 247.92C220.726 251.653 221.446 254.933 222.886 257.76C224.326 260.587 226.326 262.773 228.886 264.32C231.5 265.813 234.486 266.56 237.846 266.56ZM324.899 220.16L304.419 276H290.819L270.339 220.16H282.339L297.699 264.56L312.979 220.16H324.899ZM342.814 220.16V276H331.614V220.16H342.814ZM373.399 220.16C379.266 220.16 384.413 221.307 388.839 223.6C393.319 225.893 396.759 229.173 399.159 233.44C401.613 237.653 402.839 242.56 402.839 248.16C402.839 253.76 401.613 258.667 399.159 262.88C396.759 267.04 393.319 270.267 388.839 272.56C384.413 274.853 379.266 276 373.399 276H353.879V220.16H373.399ZM372.999 266.48C378.866 266.48 383.399 264.88 386.599 261.68C389.799 258.48 391.399 253.973 391.399 248.16C391.399 242.347 389.799 237.813 386.599 234.56C383.399 231.253 378.866 229.6 372.999 229.6H365.079V266.48H372.999Z" fill="#FAFAFA"/>
<path d="M408.583 228V217.68H427.863V276H416.343V228H408.583ZM451.888 259.6C452.314 261.947 453.274 263.76 454.768 265.04C456.314 266.267 458.368 266.88 460.928 266.88C464.234 266.88 466.634 265.52 468.128 262.8C469.621 260.027 470.368 255.387 470.368 248.88C469.141 250.587 467.408 251.92 465.168 252.88C462.981 253.84 460.608 254.32 458.048 254.32C454.634 254.32 451.541 253.627 448.768 252.24C446.048 250.8 443.888 248.693 442.288 245.92C440.688 243.093 439.888 239.68 439.888 235.68C439.888 229.76 441.648 225.067 445.168 221.6C448.688 218.08 453.488 216.32 459.568 216.32C467.141 216.32 472.474 218.747 475.568 223.6C478.714 228.453 480.288 235.76 480.288 245.52C480.288 252.453 479.674 258.133 478.448 262.56C477.274 266.987 475.221 270.347 472.288 272.64C469.408 274.933 465.461 276.08 460.448 276.08C456.501 276.08 453.141 275.333 450.368 273.84C447.594 272.293 445.461 270.293 443.968 267.84C442.528 265.333 441.701 262.587 441.488 259.6H451.888ZM460.368 245.2C463.141 245.2 465.328 244.347 466.928 242.64C468.528 240.933 469.328 238.64 469.328 235.76C469.328 232.613 468.474 230.187 466.768 228.48C465.114 226.72 462.848 225.84 459.968 225.84C457.088 225.84 454.794 226.747 453.088 228.56C451.434 230.32 450.608 232.667 450.608 235.6C450.608 238.427 451.408 240.747 453.008 242.56C454.661 244.32 457.114 245.2 460.368 245.2Z" fill="#44CDA8"/>
</svg>
