<svg width="240" height="69" viewBox="0 0 240 69" fill="none" xmlns="http://www.w3.org/2000/svg">
<path d="M29.76 57.84C23 57.84 17.84 55.96 14.28 52.2C10.76 48.44 9 43.1 9 36.18C9 32.74 9.54 29.68 10.62 27C11.7 24.28 13.18 22 15.06 20.16C16.94 18.28 19.18 16.86 21.78 15.9C24.38 14.94 27.2 14.46 30.24 14.46C32 14.46 33.6 14.6 35.04 14.88C36.48 15.12 37.74 15.42 38.82 15.78C39.9 16.1 40.8 16.44 41.52 16.8C42.24 17.16 42.76 17.44 43.08 17.64L40.38 25.2C39.1 24.52 37.6 23.94 35.88 23.46C34.2 22.98 32.28 22.74 30.12 22.74C28.68 22.74 27.26 22.98 25.86 23.46C24.5 23.94 23.28 24.72 22.2 25.8C21.16 26.84 20.32 28.2 19.68 29.88C19.04 31.56 18.72 33.6 18.72 36C18.72 37.92 18.92 39.72 19.32 41.4C19.76 43.04 20.44 44.46 21.36 45.66C22.32 46.86 23.56 47.82 25.08 48.54C26.6 49.22 28.44 49.56 30.6 49.56C31.96 49.56 33.18 49.48 34.26 49.32C35.34 49.16 36.3 48.98 37.14 48.78C37.98 48.54 38.72 48.28 39.36 48C40 47.72 40.58 47.46 41.1 47.22L43.68 54.72C42.36 55.52 40.5 56.24 38.1 56.88C35.7 57.52 32.92 57.84 29.76 57.84ZM184.469 57.54C182.189 57.54 179.909 57.46 177.629 57.3C175.389 57.18 173.049 56.86 170.609 56.34V16.02C172.529 15.66 174.629 15.4 176.909 15.24C179.189 15.04 181.309 14.94 183.269 14.94C185.909 14.94 188.329 15.14 190.529 15.54C192.769 15.9 194.689 16.54 196.289 17.46C197.889 18.38 199.129 19.6 200.009 21.12C200.929 22.6 201.389 24.44 201.389 26.64C201.389 29.96 199.789 32.58 196.589 34.5C199.229 35.5 201.029 36.86 201.989 38.58C202.949 40.3 203.429 42.24 203.429 44.4C203.429 48.76 201.829 52.04 198.629 54.24C195.469 56.44 190.749 57.54 184.469 57.54ZM179.729 38.88V49.62C180.409 49.7 181.149 49.76 181.949 49.8C182.749 49.84 183.629 49.86 184.589 49.86C187.389 49.86 189.649 49.46 191.369 48.66C193.089 47.86 193.949 46.38 193.949 44.22C193.949 42.3 193.229 40.94 191.789 40.14C190.349 39.3 188.289 38.88 185.609 38.88H179.729ZM179.729 31.74H184.289C187.169 31.74 189.229 31.38 190.469 30.66C191.709 29.9 192.329 28.7 192.329 27.06C192.329 25.38 191.689 24.2 190.409 23.52C189.129 22.84 187.249 22.5 184.769 22.5C183.969 22.5 183.109 22.52 182.189 22.56C181.269 22.56 180.449 22.6 179.729 22.68V31.74ZM216.801 14.94C223.041 14.94 227.821 16.06 231.141 18.3C234.461 20.5 236.121 23.94 236.121 28.62C236.121 31.54 235.441 33.92 234.081 35.76C232.761 37.56 230.841 38.98 228.321 40.02C229.161 41.06 230.041 42.26 230.961 43.62C231.881 44.94 232.781 46.34 233.661 47.82C234.581 49.26 235.461 50.78 236.301 52.38C237.141 53.94 237.921 55.48 238.641 57H228.141C227.381 55.64 226.601 54.26 225.801 52.86C225.041 51.46 224.241 50.1 223.401 48.78C222.601 47.46 221.801 46.22 221.001 45.06C220.201 43.86 219.401 42.78 218.601 41.82H213.981V57H204.621V16.02C206.661 15.62 208.761 15.34 210.921 15.18C213.121 15.02 215.081 14.94 216.801 14.94ZM217.341 22.92C216.661 22.92 216.041 22.94 215.481 22.98C214.961 23.02 214.461 23.06 213.981 23.1V34.38H216.621C220.141 34.38 222.661 33.94 224.181 33.06C225.701 32.18 226.461 30.68 226.461 28.56C226.461 26.52 225.681 25.08 224.121 24.24C222.601 23.36 220.341 22.92 217.341 22.92Z" fill="#44CDA8"/>
<path d="M51.2663 36.18C51.2663 38.22 51.5063 40.06 51.9863 41.7C52.5063 43.34 53.2263 44.76 54.1463 45.96C55.1063 47.12 56.2663 48.02 57.6263 48.66C58.9863 49.3 60.5463 49.62 62.3063 49.62C64.0263 49.62 65.5663 49.3 66.9263 48.66C68.3263 48.02 69.4863 47.12 70.4063 45.96C71.3663 44.76 72.0863 43.34 72.5663 41.7C73.0863 40.06 73.3463 38.22 73.3463 36.18C73.3463 34.14 73.0863 32.3 72.5663 30.66C72.0863 28.98 71.3663 27.56 70.4063 26.4C69.4863 25.2 68.3263 24.28 66.9263 23.64C65.5663 23 64.0263 22.68 62.3063 22.68C60.5463 22.68 58.9863 23.02 57.6263 23.7C56.2663 24.34 55.1063 25.26 54.1463 26.46C53.2263 27.62 52.5063 29.04 51.9863 30.72C51.5063 32.36 51.2663 34.18 51.2663 36.18ZM83.0063 36.18C83.0063 39.74 82.4663 42.88 81.3863 45.6C80.3463 48.28 78.9063 50.54 77.0663 52.38C75.2263 54.18 73.0263 55.54 70.4663 56.46C67.9463 57.38 65.2263 57.84 62.3063 57.84C59.4663 57.84 56.7863 57.38 54.2663 56.46C51.7463 55.54 49.5463 54.18 47.6663 52.38C45.7863 50.54 44.3063 48.28 43.2263 45.6C42.1463 42.88 41.6063 39.74 41.6063 36.18C41.6063 32.62 42.1663 29.5 43.2863 26.82C44.4063 24.1 45.9063 21.82 47.7863 19.98C49.7063 18.14 51.9063 16.76 54.3863 15.84C56.9063 14.92 59.5463 14.46 62.3063 14.46C65.1463 14.46 67.8263 14.92 70.3463 15.84C72.8663 16.76 75.0663 18.14 76.9463 19.98C78.8263 21.82 80.3063 24.1 81.3863 26.82C82.4663 29.5 83.0063 32.62 83.0063 36.18ZM95.3452 57C93.7052 53.52 92.0852 49.9 90.4852 46.14C88.8852 42.38 87.3652 38.66 85.9252 34.98C84.4852 31.3 83.1452 27.78 81.9052 24.42C80.7052 21.06 79.6652 18.06 78.7852 15.42H89.1052C89.9052 17.82 90.7652 20.42 91.6852 23.22C92.6452 25.98 93.6052 28.74 94.5652 31.5C95.5652 34.26 96.5252 36.9 97.4452 39.42C98.3652 41.94 99.2252 44.12 100.025 45.96C100.785 44.12 101.625 41.94 102.545 39.42C103.505 36.9 104.465 34.26 105.425 31.5C106.425 28.74 107.385 25.98 108.305 23.22C109.265 20.42 110.145 17.82 110.945 15.42H120.905C119.985 18.06 118.925 21.06 117.725 24.42C116.525 27.78 115.205 31.3 113.765 34.98C112.325 38.66 110.805 42.38 109.205 46.14C107.605 49.9 105.985 53.52 104.345 57H95.3452ZM119.986 15.42H129.346V57H119.986V15.42ZM142.03 49.38C142.47 49.42 142.97 49.46 143.53 49.5C144.13 49.5 144.83 49.5 145.63 49.5C150.31 49.5 153.77 48.32 156.01 45.96C158.29 43.6 159.43 40.34 159.43 36.18C159.43 31.82 158.35 28.52 156.19 26.28C154.03 24.04 150.61 22.92 145.93 22.92C145.29 22.92 144.63 22.94 143.95 22.98C143.27 22.98 142.63 23.02 142.03 23.1V49.38ZM169.09 36.18C169.09 39.78 168.53 42.92 167.41 45.6C166.29 48.28 164.69 50.5 162.61 52.26C160.57 54.02 158.07 55.34 155.11 56.22C152.15 57.1 148.83 57.54 145.15 57.54C143.47 57.54 141.51 57.46 139.27 57.3C137.03 57.18 134.83 56.9 132.67 56.46V15.96C134.83 15.56 137.07 15.3 139.39 15.18C141.75 15.02 143.77 14.94 145.45 14.94C149.01 14.94 152.23 15.34 155.11 16.14C158.03 16.94 160.53 18.2 162.61 19.92C164.69 21.64 166.29 23.84 167.41 26.52C168.53 29.2 169.09 32.42 169.09 36.18Z" fill="#0F162B"/>
<path d="M33.042 14.8433L34.813 17.1592L25.2608 17.2315C26.952 16.5691 27.7213 16.0848 28.5143 14.8514C28.577 14.6937 28.6344 14.5439 28.6866 14.3979C29.3736 12.4767 28.0597 10.3646 28.2818 8.33633C28.4784 4.73034 31.8988 4.38472 33.4647 7.13832C33.6759 7.50972 33.7685 7.91771 33.7448 8.3443C33.6424 10.1874 32.0437 11.8718 32.555 13.6455C32.6643 14.0246 32.8274 14.4073 33.042 14.8433Z" fill="#44CDA8"/>
<path d="M12.6123 25.2085L13.3194 28.0369L19.3299 20.6123C17.7577 21.522 16.8995 21.8217 15.4408 21.673C15.1726 21.5917 14.9301 21.5122 14.6991 21.4243C12.97 20.7668 12.3412 18.6839 10.813 17.6413C10.6496 17.5298 10.4007 17.3875 10.2132 17.324C7.94563 16.5563 5.27508 18.0372 6.32557 20.7358C6.48056 21.134 6.74377 21.46 7.09213 21.7073C8.59722 22.776 10.9109 22.5757 11.9791 24.0811C12.2075 24.4029 12.4052 24.769 12.6123 25.2085Z" fill="#44CDA8"/>
<path d="M9.25077 42.3097L12.6098 43.8504L10.383 35.1363C10.1858 36.8351 9.92956 37.6517 8.99692 38.6697C8.56229 38.9909 8.19364 39.2349 7.7576 39.4449C6.60826 39.9986 5.37084 39.4788 4.11298 39.6917C3.45372 39.8033 2.62023 39.9741 2.06721 40.3499C0.646668 41.3153 0.902889 44.062 3.09289 44.9484C3.51749 45.1203 3.96886 45.1179 4.40197 44.9688C5.99153 44.4215 6.93685 42.226 8.61798 42.2339C8.79442 42.2347 8.99944 42.2589 9.25077 42.3097Z" fill="#44CDA8"/>
<path d="M17.3457 56.613C17.4743 56.5606 17.6238 56.5116 17.8004 56.4643L19.6473 56.4066L21.4941 56.3488L15.6215 49.5367C16.201 51.1457 16.335 51.991 15.9529 53.3177C15.5853 54.036 15.2727 54.5348 14.6817 55.1405C14.1345 55.7014 13.379 55.8227 12.6393 56.0815C11.5269 56.4708 10.3728 57.4907 10.3505 58.669C10.3226 60.1456 11.8781 61.8835 13.6304 61.5923C13.9803 61.5341 14.2816 61.3494 14.5387 61.105C15.8331 59.8744 15.6916 57.2867 17.3457 56.613Z" fill="#44CDA8"/>
<path d="M37.1933 58.2748L38.9055 54.9999L30.088 56.7736C31.7743 57.0582 32.5766 57.3563 33.545 58.3403C33.903 58.881 34.1548 59.3211 34.3633 59.8946C34.7342 60.9148 34.2791 61.9089 34.2948 62.9943C34.3072 63.86 34.5021 64.9014 35.0038 65.6071C36.0536 67.0839 38.7664 67.2522 39.6017 64.4917C39.7167 64.1115 39.7232 63.7204 39.6211 63.3365C39.1729 61.652 36.9186 60.5434 37.0923 58.8089C37.1077 58.655 37.1406 58.4803 37.1933 58.2748Z" fill="#44CDA8"/>
<path d="M21.8056 14.2189C22.1841 15.2253 22.6771 15.4578 23.6962 15.7094L19.526 19.6523C19.7876 18.6457 19.9495 17.9633 19.8646 17.0401C19.8004 16.3421 19.3079 15.7961 18.8732 15.2462C18.6668 14.9851 18.5259 14.6915 18.4407 14.3164C18.2492 13.4726 18.5187 12.3213 19.2098 11.8006C20.2386 11.0253 21.646 12.1086 21.7855 13.3893C21.8126 13.6377 21.8151 13.9076 21.8056 14.2189Z" fill="#44CDA8"/>
<path d="M6.74535 32.5003C7.81734 32.4158 8.83952 32.684 9.49987 33.5L10.6973 28.1299C9.80436 28.8708 9.22422 29.3282 8.15935 29.6499C7.69424 29.7904 7.20345 29.6814 6.75287 29.4996C6.28736 29.3117 5.83669 29.2378 5.33398 29.3486C4.51315 29.5294 3.81326 30.2892 3.61112 31.1051C3.31303 32.3082 4.73305 33.2331 5.91437 32.8578C6.17281 32.7757 6.43947 32.6553 6.74535 32.5003Z" fill="#44CDA8"/>
<path d="M11.4722 50.8847C12.3415 50.2518 13.3529 49.9455 14.3426 50.2953L12.553 45.0924C12.1025 46.4188 11.8241 47.1543 10.6586 48.2551C9.8214 48.2853 9.2642 48.4256 8.71438 48.9544C8.09075 49.5541 7.68336 50.6641 7.9746 51.4789C8.40824 52.692 10.1794 52.5602 10.9996 51.5668C11.1587 51.3742 11.3091 51.1501 11.4722 50.8847Z" fill="#44CDA8"/>
<path d="M25.7415 59.7933C25.8988 58.8348 26.3484 57.9959 27.1932 57.5389L22.134 55.3765C22.6625 56.3255 22.997 56.9594 23.1367 57.9437C23.2222 58.5458 22.8968 59.1113 22.6047 59.6446C22.1146 60.5393 22.154 61.6421 22.6549 62.1043C22.8419 62.3218 23.0154 62.5018 23.1803 62.6477C24.4163 63.7413 26.2 61.9515 25.7857 60.354C25.7406 60.1799 25.7123 59.9708 25.7415 59.7933Z" fill="#44CDA8"/>
</svg>
