<svg width="46" height="55" viewBox="0 0 46 55" fill="none" xmlns="http://www.w3.org/2000/svg">
<path d="M35.5179 41.8584L22.8052 55L9.6073 41.8584L6.43033 38.4439C4.04839 35.8839 2.25453 32.8344 1.17424 29.5087L1.01406 29.0156C0.342207 26.9473 0 24.7861 0 22.6114C0 20.5922 0.295021 18.5839 0.875717 16.65L0.936815 16.4465C1.91648 13.1839 3.65235 10.1718 5.97568 7.68053C7.34842 6.20856 8.92406 4.91762 10.6394 3.86466L10.841 3.74093C13.2961 2.23389 16.0128 1.20238 18.8495 0.700242L18.9592 0.680825C21.5039 0.230364 24.1254 0.22833 26.6719 0.66874C29.676 1.18831 32.5617 2.32666 35.1067 4.0053C37.2408 5.41295 39.1298 7.1996 40.6607 9.24716C42.1925 11.2959 43.3772 13.6116 44.1343 16.0551L44.3505 16.7528C44.9283 18.6179 45.2222 20.5593 45.2222 22.5119C45.2222 24.7497 44.8362 26.9708 44.0811 29.0774L43.7702 29.9447C42.6786 32.9904 41.0005 35.7926 38.8311 38.1928L35.5179 41.8584Z" fill="#FD5656"/>
<circle cx="22.472" cy="22.4721" r="17.472" fill="#F56565"/>
<circle cx="22.4399" cy="22.4399" r="13.44" fill="#F97575"/>
<circle cx="22.4127" cy="22.4127" r="10.4126" fill="#EB5757"/>
<circle cx="22.4999" cy="22.4999" r="6.5" fill="#F7FAFF"/>
</svg>
