<svg width="63" height="77" viewBox="0 0 63 77" fill="none" xmlns="http://www.w3.org/2000/svg">
<path d="M49.4807 58.3138L31.7704 76.6216L13.3841 58.3138L8.95822 53.557C5.6399 49.9906 3.14084 45.7423 1.63586 41.1092L1.41271 40.4222C0.476735 37.5408 0 34.5301 0 31.5004C0 28.6874 0.411 25.8895 1.21998 23.1954L1.3051 22.9119C2.66989 18.3667 5.08816 14.1706 8.32485 10.6999C10.2372 8.64927 12.4323 6.85083 14.822 5.38394L15.1028 5.21156C18.523 3.11208 22.3078 1.67506 26.2596 0.975522L26.4124 0.94847C29.9575 0.320924 33.6096 0.318091 37.1571 0.931635C41.3423 1.65545 45.3623 3.24132 48.9078 5.57986C51.881 7.54089 54.5125 10.0299 56.6453 12.8824C58.7793 15.7366 60.4296 18.9626 61.4843 22.3667L61.7855 23.3387C62.5906 25.937 63 28.6416 63 31.3617C63 34.4793 62.4622 37.5736 61.4103 40.5084L60.9772 41.7166C59.4564 45.9596 57.1187 49.8633 54.0964 53.2072L49.4807 58.3138Z" fill="#EB5757"/>
<circle cx="31.3064" cy="31.3063" r="24.3406" fill="#F56565"/>
<circle cx="31.2615" cy="31.2615" r="18.7235" fill="#F97575"/>
<circle cx="31.2237" cy="31.2235" r="14.506" fill="#EB5757"/>
<circle cx="31.3451" cy="31.3451" r="9.05528" fill="#F7FAFF"/>
</svg>
