<svg width="357" height="101" viewBox="0 0 357 101" fill="none" xmlns="http://www.w3.org/2000/svg">
<line x1="25.5891" y1="76.562" x2="55.589" y2="47.562" stroke="#44CDA8" stroke-width="4"/>
<circle cx="21.4791" cy="81.5" r="8.5" transform="rotate(-90 21.4791 81.5)" fill="#44CDA8"/>
<line y1="-2" x2="41.7253" y2="-2" transform="matrix(0.718988 0.695022 0.695022 -0.718988 25.9791 20)" stroke="#44CDA8" stroke-width="4"/>
<circle r="8.5" transform="matrix(1.19249e-08 1 1 -1.19249e-08 20.4791 16.5)" fill="#44CDA8"/>
<line x1="23.9792" y1="50.0001" x2="58.9792" y2="50.0001" stroke="#44CDA8" stroke-width="4"/>
<circle r="8.5" transform="matrix(1 0 0 -1 17 50.1128)" fill="#44CDA8"/>
<path d="M53 83L54 43" stroke="#44CDA8" stroke-width="4"/>
<circle cx="52.9999" cy="88.0223" r="8.5" transform="rotate(-135 52.9999 88.0223)" fill="#44CDA8"/>
<circle cx="53.9793" cy="50.0001" r="8" fill="#44CDA8"/>
<path d="M54.2987 17.4073L54.2987 57.5" stroke="#44CDA8" stroke-width="4"/>
<circle cx="53.9999" cy="12.0208" r="8.5" transform="rotate(45 53.9999 12.0208)" fill="#44CDA8"/>
<path d="M86.1 50C86.1 45.88 87.02 42.2 88.86 38.96C90.74 35.68 93.28 33.14 96.48 31.34C99.72 29.5 103.34 28.58 107.34 28.58C112.02 28.58 116.12 29.78 119.64 32.18C123.16 34.58 125.62 37.9 127.02 42.14H117.36C116.4 40.14 115.04 38.64 113.28 37.64C111.56 36.64 109.56 36.14 107.28 36.14C104.84 36.14 102.66 36.72 100.74 37.88C98.86 39 97.38 40.6 96.3 42.68C95.26 44.76 94.74 47.2 94.74 50C94.74 52.76 95.26 55.2 96.3 57.32C97.38 59.4 98.86 61.02 100.74 62.18C102.66 63.3 104.84 63.86 107.28 63.86C109.56 63.86 111.56 63.36 113.28 62.36C115.04 61.32 116.4 59.8 117.36 57.8H127.02C125.62 62.08 123.16 65.42 119.64 67.82C116.16 70.18 112.06 71.36 107.34 71.36C103.34 71.36 99.72 70.46 96.48 68.66C93.28 66.82 90.74 64.28 88.86 61.04C87.02 57.8 86.1 54.12 86.1 50ZM153.635 71.42C149.715 71.42 146.115 70.5 142.835 68.66C139.555 66.82 136.955 64.28 135.035 61.04C133.115 57.76 132.155 54.06 132.155 49.94C132.155 45.86 133.115 42.2 135.035 38.96C136.955 35.68 139.555 33.12 142.835 31.28C146.115 29.44 149.715 28.52 153.635 28.52C157.595 28.52 161.195 29.44 164.435 31.28C167.715 33.12 170.295 35.68 172.175 38.96C174.095 42.2 175.055 45.86 175.055 49.94C175.055 54.06 174.095 57.76 172.175 61.04C170.295 64.28 167.715 66.82 164.435 68.66C161.155 70.5 157.555 71.42 153.635 71.42ZM153.635 63.92C156.155 63.92 158.375 63.36 160.295 62.24C162.215 61.08 163.715 59.44 164.795 57.32C165.875 55.2 166.415 52.74 166.415 49.94C166.415 47.14 165.875 44.7 164.795 42.62C163.715 40.5 162.215 38.88 160.295 37.76C158.375 36.64 156.155 36.08 153.635 36.08C151.115 36.08 148.875 36.64 146.915 37.76C144.995 38.88 143.495 40.5 142.415 42.62C141.335 44.7 140.795 47.14 140.795 49.94C140.795 52.74 141.335 55.2 142.415 57.32C143.495 59.44 144.995 61.08 146.915 62.24C148.875 63.36 151.115 63.92 153.635 63.92ZM218.924 29.12L203.564 71H193.364L178.004 29.12H187.004L198.524 62.42L209.984 29.12H218.924ZM232.36 29.12V71H223.96V29.12H232.36ZM255.3 29.12C259.7 29.12 263.56 29.98 266.88 31.7C270.24 33.42 272.82 35.88 274.62 39.08C276.46 42.24 277.38 45.92 277.38 50.12C277.38 54.32 276.46 58 274.62 61.16C272.82 64.28 270.24 66.7 266.88 68.42C263.56 70.14 259.7 71 255.3 71H240.66V29.12H255.3ZM255 63.86C259.4 63.86 262.8 62.66 265.2 60.26C267.6 57.86 268.8 54.48 268.8 50.12C268.8 45.76 267.6 42.36 265.2 39.92C262.8 37.44 259.4 36.2 255 36.2H249.06V63.86H255Z" fill="#0F162B"/>
<path d="M307.427 49.52C309.787 49.96 311.727 51.14 313.247 53.06C314.767 54.98 315.527 57.18 315.527 59.66C315.527 61.9 314.967 63.88 313.847 65.6C312.767 67.28 311.187 68.6 309.107 69.56C307.027 70.52 304.567 71 301.727 71H283.667V29.12H300.947C303.787 29.12 306.227 29.58 308.267 30.5C310.347 31.42 311.907 32.7 312.947 34.34C314.027 35.98 314.567 37.84 314.567 39.92C314.567 42.36 313.907 44.4 312.587 46.04C311.307 47.68 309.587 48.84 307.427 49.52ZM292.067 46.4H299.747C301.747 46.4 303.287 45.96 304.367 45.08C305.447 44.16 305.987 42.86 305.987 41.18C305.987 39.5 305.447 38.2 304.367 37.28C303.287 36.36 301.747 35.9 299.747 35.9H292.067V46.4ZM300.527 64.16C302.567 64.16 304.147 63.68 305.267 62.72C306.427 61.76 307.007 60.4 307.007 58.64C307.007 56.84 306.407 55.44 305.207 54.44C304.007 53.4 302.387 52.88 300.347 52.88H292.067V64.16H300.527ZM343.822 71L334.582 54.68H330.622V71H322.222V29.12H337.942C341.182 29.12 343.942 29.7 346.222 30.86C348.502 31.98 350.202 33.52 351.322 35.48C352.482 37.4 353.062 39.56 353.062 41.96C353.062 44.72 352.262 47.22 350.662 49.46C349.062 51.66 346.682 53.18 343.522 54.02L353.542 71H343.822ZM330.622 48.38H337.642C339.922 48.38 341.622 47.84 342.742 46.76C343.862 45.64 344.422 44.1 344.422 42.14C344.422 40.22 343.862 38.74 342.742 37.7C341.622 36.62 339.922 36.08 337.642 36.08H330.622V48.38Z" fill="#44CDA8"/>
</svg>
