<svg width="339" height="101" viewBox="0 0 339 101" fill="none" xmlns="http://www.w3.org/2000/svg">
<line x1="25.5891" y1="76.562" x2="55.589" y2="47.562" stroke="#44CDA8" stroke-width="4"/>
<circle cx="21.4791" cy="81.5" r="8.5" transform="rotate(-90 21.4791 81.5)" fill="#44CDA8"/>
<line y1="-2" x2="41.7253" y2="-2" transform="matrix(0.718988 0.695022 0.695022 -0.718988 25.9791 20)" stroke="#44CDA8" stroke-width="4"/>
<circle r="8.5" transform="matrix(1.19249e-08 1 1 -1.19249e-08 20.4791 16.5)" fill="#44CDA8"/>
<line x1="23.9792" y1="50.0001" x2="58.9792" y2="50.0001" stroke="#44CDA8" stroke-width="4"/>
<circle r="8.5" transform="matrix(1 0 0 -1 17 50.1128)" fill="#44CDA8"/>
<path d="M53 83L54 43" stroke="#44CDA8" stroke-width="4"/>
<circle cx="52.9999" cy="88.0223" r="8.5" transform="rotate(-135 52.9999 88.0223)" fill="#44CDA8"/>
<circle cx="53.9792" cy="50.0001" r="8" fill="#44CDA8"/>
<path d="M54.2986 17.4073L54.2987 57.5" stroke="#44CDA8" stroke-width="4"/>
<circle cx="53.9999" cy="12.0208" r="8.5" transform="rotate(45 53.9999 12.0208)" fill="#44CDA8"/>
<path d="M86.1 50C86.1 45.88 87.02 42.2 88.86 38.96C90.74 35.68 93.28 33.14 96.48 31.34C99.72 29.5 103.34 28.58 107.34 28.58C112.02 28.58 116.12 29.78 119.64 32.18C123.16 34.58 125.62 37.9 127.02 42.14H117.36C116.4 40.14 115.04 38.64 113.28 37.64C111.56 36.64 109.56 36.14 107.28 36.14C104.84 36.14 102.66 36.72 100.74 37.88C98.86 39 97.38 40.6 96.3 42.68C95.26 44.76 94.74 47.2 94.74 50C94.74 52.76 95.26 55.2 96.3 57.32C97.38 59.4 98.86 61.02 100.74 62.18C102.66 63.3 104.84 63.86 107.28 63.86C109.56 63.86 111.56 63.36 113.28 62.36C115.04 61.32 116.4 59.8 117.36 57.8H127.02C125.62 62.08 123.16 65.42 119.64 67.82C116.16 70.18 112.06 71.36 107.34 71.36C103.34 71.36 99.72 70.46 96.48 68.66C93.28 66.82 90.74 64.28 88.86 61.04C87.02 57.8 86.1 54.12 86.1 50ZM153.635 71.42C149.715 71.42 146.115 70.5 142.835 68.66C139.555 66.82 136.955 64.28 135.035 61.04C133.115 57.76 132.155 54.06 132.155 49.94C132.155 45.86 133.115 42.2 135.035 38.96C136.955 35.68 139.555 33.12 142.835 31.28C146.115 29.44 149.715 28.52 153.635 28.52C157.595 28.52 161.195 29.44 164.435 31.28C167.715 33.12 170.295 35.68 172.175 38.96C174.095 42.2 175.055 45.86 175.055 49.94C175.055 54.06 174.095 57.76 172.175 61.04C170.295 64.28 167.715 66.82 164.435 68.66C161.155 70.5 157.555 71.42 153.635 71.42ZM153.635 63.92C156.155 63.92 158.375 63.36 160.295 62.24C162.215 61.08 163.715 59.44 164.795 57.32C165.875 55.2 166.415 52.74 166.415 49.94C166.415 47.14 165.875 44.7 164.795 42.62C163.715 40.5 162.215 38.88 160.295 37.76C158.375 36.64 156.155 36.08 153.635 36.08C151.115 36.08 148.875 36.64 146.915 37.76C144.995 38.88 143.495 40.5 142.415 42.62C141.335 44.7 140.795 47.14 140.795 49.94C140.795 52.74 141.335 55.2 142.415 57.32C143.495 59.44 144.995 61.08 146.915 62.24C148.875 63.36 151.115 63.92 153.635 63.92ZM218.924 29.12L203.564 71H193.364L178.004 29.12H187.004L198.524 62.42L209.984 29.12H218.924ZM232.36 29.12V71H223.96V29.12H232.36ZM255.3 29.12C259.7 29.12 263.56 29.98 266.88 31.7C270.24 33.42 272.82 35.88 274.62 39.08C276.46 42.24 277.38 45.92 277.38 50.12C277.38 54.32 276.46 58 274.62 61.16C272.82 64.28 270.24 66.7 266.88 68.42C263.56 70.14 259.7 71 255.3 71H240.66V29.12H255.3ZM255 63.86C259.4 63.86 262.8 62.66 265.2 60.26C267.6 57.86 268.8 54.48 268.8 50.12C268.8 45.76 267.6 42.36 265.2 39.92C262.8 37.44 259.4 36.2 255 36.2H249.06V63.86H255Z" fill="#FAFAFA"/>
<path d="M281.687 35V27.26H296.147V71H287.507V35H281.687ZM314.166 58.7C314.486 60.46 315.206 61.82 316.326 62.78C317.486 63.7 319.026 64.16 320.946 64.16C323.426 64.16 325.226 63.14 326.346 61.1C327.466 59.02 328.026 55.54 328.026 50.66C327.106 51.94 325.806 52.94 324.126 53.66C322.486 54.38 320.706 54.74 318.786 54.74C316.226 54.74 313.906 54.22 311.826 53.18C309.786 52.1 308.166 50.52 306.966 48.44C305.766 46.32 305.166 43.76 305.166 40.76C305.166 36.32 306.486 32.8 309.126 30.2C311.766 27.56 315.366 26.24 319.926 26.24C325.606 26.24 329.606 28.06 331.926 31.7C334.286 35.34 335.466 40.82 335.466 48.14C335.466 53.34 335.006 57.6 334.086 60.92C333.206 64.24 331.666 66.76 329.466 68.48C327.306 70.2 324.346 71.06 320.586 71.06C317.626 71.06 315.106 70.5 313.026 69.38C310.946 68.22 309.346 66.72 308.226 64.88C307.146 63 306.526 60.94 306.366 58.7H314.166ZM320.526 47.9C322.606 47.9 324.246 47.26 325.446 45.98C326.646 44.7 327.246 42.98 327.246 40.82C327.246 38.46 326.606 36.64 325.326 35.36C324.086 34.04 322.386 33.38 320.226 33.38C318.066 33.38 316.346 34.06 315.066 35.42C313.826 36.74 313.206 38.5 313.206 40.7C313.206 42.82 313.806 44.56 315.006 45.92C316.246 47.24 318.086 47.9 320.526 47.9Z" fill="#44CDA8"/>
</svg>
